<svg width="129" height="17" fill="none" xmlns="http://www.w3.org/2000/svg"><path fill-rule="evenodd" clip-rule="evenodd" d="M3.35449 3.42818C1.65427 3.05249.367615 1.54972 0 .0469613L21 0v.0469613C20.6324 1.54972 19.3917 2.95856 17.6455 3.42818H12.407l-.2757.09392V17H8.86871V3.5221L8.593 3.42818H3.35449Zm29.07621-.00945h12.5174C46.7098 3.09091 48.0079 1.49862 48.3324 0H29c.3709 1.49862 1.669 3.04408 3.4307 3.41873Zm93.1853 0h-12.518c-1.715-.37465-3.013-1.92011-3.384-3.41873H129c-.371 1.49862-1.623 3.09091-3.384 3.41873ZM110.224 17V6.7438h18.359V17h-3.245v-6.8375h-11.869V17h-3.245Zm-9.875 0c1.623-.7025 2.504-1.9201 2.874-3.3251H88.6198V.046832h-3.2916V17h15.0208ZM72.579 3.3719H60.9889l.0463 3.3719h15.0209V17H56.8164c.7881-1.6391 2.3644-2.9036 4.2188-3.4187h11.7757v-3.5124H57.79V.046832h18.3588C75.7779 1.49862 74.3408 2.85675 72.579 3.3719Zm-27.6309 6.7438H32.4307C30.669 9.74105 29.3709 8.19559 29 6.69697h19.3324c-.3245 1.49862-1.6226 3.09091-3.3843 3.41873ZM32.4307 17h12.5174c1.7617-.3278 3.0598-1.9201 3.3843-3.4187H29c.3709 1.4986 1.669 3.0909 3.4307 3.4187Z" fill="#fff"/></svg>